<?xml version="1.0" encoding="UTF-8" standalone="no"?>
<!-- Created with Inkscape (http://www.inkscape.org/) -->

<svg
   xmlns:dc="http://purl.org/dc/elements/1.1/"
   xmlns:cc="http://creativecommons.org/ns#"
   xmlns:rdf="http://www.w3.org/1999/02/22-rdf-syntax-ns#"
   xmlns:svg="http://www.w3.org/2000/svg"
   xmlns="http://www.w3.org/2000/svg"
   xmlns:sodipodi="http://sodipodi.sourceforge.net/DTD/sodipodi-0.dtd"
   xmlns:inkscape="http://www.inkscape.org/namespaces/inkscape"
   width="744.09448819"
   height="1052.3622047"
   id="svg2"
   version="1.1"
   inkscape:version="0.91 r13725"
   sodipodi:docname="wbxml-stream.svg"
   inkscape:export-filename="/home/ricky/Desktop/wbxml-stream.png"
   inkscape:export-xdpi="12.739619"
   inkscape:export-ydpi="12.739619">
  <defs
     id="defs4" />
  <sodipodi:namedview
     id="base"
     pagecolor="#ffffff"
     bordercolor="#666666"
     borderopacity="1.0"
     inkscape:pageopacity="0.0"
     inkscape:pageshadow="2"
     inkscape:zoom="0.57394689"
     inkscape:cx="375.53188"
     inkscape:cy="526.18109"
     inkscape:document-units="px"
     inkscape:current-layer="layer1"
     showgrid="true"
     inkscape:snap-grids="false"
     inkscape:window-width="1440"
     inkscape:window-height="836"
     inkscape:window-x="0"
     inkscape:window-y="27"
     inkscape:window-maximized="1">
    <inkscape:grid
       type="xygrid"
       id="grid3783" />
  </sodipodi:namedview>
  <metadata
     id="metadata7">
    <rdf:RDF>
      <cc:Work
         rdf:about="">
        <dc:format>image/svg+xml</dc:format>
        <dc:type
           rdf:resource="http://purl.org/dc/dcmitype/StillImage" />
        <dc:title />
      </cc:Work>
    </rdf:RDF>
  </metadata>
  <g
     inkscape:label="Layer 1"
     inkscape:groupmode="layer"
     id="layer1">
    <g
       transform="scale(0.82528352,1.2117048)"
       style="font-style:normal;font-weight:normal;font-size:87.09638977px;line-height:125%;font-family:Sans;letter-spacing:0px;word-spacing:0px;fill:#000000;fill-opacity:1;stroke:none"
       id="text2985">
      <path
         d="m 203.17877,742.60549 q 0,0.94064 -2.09031,2.92644 -2.09031,1.9858 -3.03096,1.9858 l -94.27313,0 q -1.14967,0 -3.13547,-1.9858 -1.985799,-1.88128 -1.985799,-3.03096 l 0,-19.75346 q 0,-1.04516 1.985799,-3.03095 2.09031,-1.9858 3.13547,-1.9858 l 19.64895,0 q 1.04515,0 3.03095,1.9858 2.09031,1.88128 1.9858,2.92644 l 0,10.0335 29.99599,0 0,-29.89148 -54.66169,0 q -1.25419,0 -3.23999,-1.88128 -1.881279,-1.9858 -1.881279,-3.23999 l 0,-49.54043 q 0,-1.46322 2.194829,-3.23998 2.19483,-1.88129 3.65805,-1.88129 l 92.80991,0 q 1.56774,0 3.65805,1.77677 2.19483,1.67225 2.19483,3.23999 l 0,19.85797 q 0,1.04516 -2.09031,3.03096 -1.9858,1.9858 -3.03096,1.9858 l -19.64894,0 q -1.14967,0 -3.13547,-1.88129 -1.9858,-1.98579 -1.88128,-3.13547 l 0,-9.92898 -44.94174,0 0,29.89148 69.60743,0 q 0.94065,0 3.03096,2.09031 2.09031,1.9858 2.09031,2.92644 l 0,49.74946 z"
         style="font-style:normal;font-variant:normal;font-weight:normal;font-stretch:normal;font-size:104.51567078px;font-family:Digitek;-inkscape-font-specification:Digitek;fill:#ff0000;fill-opacity:1"
         id="path4251" />
      <path
         d="m 304.18011,650.52718 q 0,2.40386 -1.35871,4.70321 -1.56773,2.71741 -3.76256,2.71741 l -24.77022,0 0,29.89148 9.92899,0 q 1.04516,0 3.03096,1.9858 1.9858,1.98579 1.9858,3.03095 l 0,49.74946 q 0,0.94064 -2.09032,2.92644 -1.9858,1.9858 -2.92644,1.9858 l -34.6992,0 q -1.14967,0 -3.13547,-1.9858 -1.88128,-1.88128 -1.88128,-3.03096 l 0,-84.55317 -24.77022,0 q -1.14967,0 -3.03095,-1.88129 -1.77677,-1.88128 -1.9858,-3.13547 -0.10451,-0.62709 -0.10451,-2.40386 0,-2.82192 1.56773,-5.12127 1.56774,-2.40386 4.28514,-2.40386 l 77.86418,0 q 2.71741,0 4.28514,2.40386 1.56774,2.29935 1.56774,5.12127 z"
         style="font-style:normal;font-variant:normal;font-weight:normal;font-stretch:normal;font-size:104.51567078px;font-family:Digitek;-inkscape-font-specification:Digitek;fill:#ff0000;fill-opacity:1"
         id="path4253" />
      <path
         d="m 422.82498,742.60549 q 0,0.94064 -2.09031,2.92644 -2.09032,1.9858 -3.03096,1.9858 l -19.64894,0 q -1.14967,0 -3.13547,-1.9858 -1.9858,-1.88128 -1.88128,-3.03096 l 0,-39.82047 -29.996,0 0,39.92499 q 0,0.94064 -2.09032,2.92644 -1.98579,1.9858 -2.92643,1.9858 l -34.59469,0 q -1.14967,0 -3.13547,-1.9858 -1.9858,-1.88128 -1.9858,-3.03096 l 0,-94.37765 q 0,-1.46322 2.19483,-3.23998 2.19483,-1.88129 3.65805,-1.88129 l 77.86417,0 q 1.56774,0 3.65805,1.77677 2.19483,1.67225 2.19483,3.23999 l 0,39.82047 9.82447,0 q 0.94064,0 3.03096,2.09031 2.09031,1.9858 2.09031,2.92644 l 0,49.74946 z m -44.83722,-54.76621 0,-29.78697 -29.78697,0 0,29.78697 29.78697,0 z"
         style="font-style:normal;font-variant:normal;font-weight:normal;font-stretch:normal;font-size:104.51567078px;font-family:Digitek;-inkscape-font-specification:Digitek;fill:#ff0000;fill-opacity:1"
         id="path4255" />
      <path
         d="m 539.38446,740.09711 q 0,2.40386 -1.3587,4.70321 -1.56774,2.71741 -3.76257,2.71741 l -94.27313,0 q -1.14967,0 -3.13547,-1.9858 -1.9858,-1.88128 -1.9858,-3.03096 l 0,-49.54042 q 0,-1.14968 1.9858,-3.13547 1.9858,-1.9858 3.13547,-1.9858 l 9.82447,0 0,-39.71596 q 0,0.20903 1.25419,-2.29934 0.20903,-0.73161 1.9858,-1.77677 1.77676,-1.04516 2.61289,-1.04516 l 77.86417,0 q 2.71741,0 4.28515,2.40386 1.56773,2.29935 1.56773,5.12127 0,2.40386 -1.3587,4.70321 -1.56774,2.71741 -3.76257,2.71741 l -54.66169,0 0,29.89148 54.66169,0 q 1.14967,0 2.92644,1.77676 1.77677,1.77677 1.9858,2.92644 0.20903,1.14967 0.20903,2.71741 0,2.40386 -1.3587,4.80772 -1.56774,2.71741 -3.76257,2.71741 l -54.66169,0 0,29.89148 54.66169,0 q 1.14967,0 2.92644,1.77677 1.77677,1.88128 2.09031,3.13547 0.10452,0.83612 0.10452,2.50837 z"
         style="font-style:normal;font-variant:normal;font-weight:normal;font-stretch:normal;font-size:104.51567078px;font-family:Digitek;-inkscape-font-specification:Digitek;fill:#ff0000;fill-opacity:1"
         id="path4257" />
      <path
         d="m 650.84064,742.60549 q 0,0.94064 -2.09032,2.92644 -2.09031,1.9858 -3.03095,1.9858 l -19.64895,0 q -1.14967,0 -3.13547,-1.9858 -1.98579,-1.88128 -1.88128,-3.03096 l 0,-39.82047 -29.996,0 0,39.92499 q 0,0.94064 -2.09031,2.92644 -1.9858,1.9858 -2.92644,1.9858 l -34.59469,0 q -1.14967,0 -3.13547,-1.9858 -1.98579,-1.88128 -1.98579,-3.03096 l 0,-49.54042 q 0,-1.14968 1.98579,-3.13547 1.9858,-1.9858 3.13547,-1.9858 l 9.82448,0 0,-39.71596 q 0,0.20903 1.25419,-2.29934 0.20903,-0.73161 1.98579,-1.77677 1.77677,-1.04516 2.61289,-1.04516 l 62.91844,0 q 1.56773,0 3.65805,1.77677 2.19483,1.67225 2.19483,3.23999 l 0,39.82047 9.82447,0 q 0.94064,0 3.03095,2.09031 2.09032,1.9858 2.09032,2.92644 l 0,49.74946 z m -44.83723,-54.87073 0,-29.68245 -14.84122,0 0,29.68245 14.84122,0 z"
         style="font-style:normal;font-variant:normal;font-weight:normal;font-stretch:normal;font-size:104.51567078px;font-family:Digitek;-inkscape-font-specification:Digitek;fill:#ff0000;fill-opacity:1"
         id="path4259" />
      <path
         d="m 797.29157,742.60549 q 0,0.94064 -2.09032,2.92644 -2.09031,1.9858 -3.03095,1.9858 l -19.64895,0 q -1.14967,0 -3.13547,-1.9858 -1.98579,-1.88128 -1.98579,-3.03096 l 0,-84.55317 -14.94575,0 0,84.65769 q 0,0.94064 -2.09031,2.92644 -2.09031,1.9858 -3.03095,1.9858 l -19.64895,0 q -1.14967,0 -3.13547,-1.9858 -1.9858,-1.88128 -1.88128,-3.03096 l 0,-84.55317 -15.05026,0 0,84.65769 q 0,0.94064 -2.09031,2.92644 -1.9858,1.9858 -2.92644,1.9858 l -34.59469,0 q -1.14967,0 -3.13547,-1.9858 -1.9858,-1.88128 -1.9858,-3.03096 l 0,-49.54042 q 0,-1.14968 1.9858,-3.13547 1.9858,-1.9858 3.13547,-1.9858 l 9.82448,0 0,-39.71596 q 0,0.20903 1.25418,-2.29934 0.20903,-0.73161 1.9858,-1.77677 1.77677,-1.04516 2.61289,-1.04516 l 107.75566,0 q 1.56773,0 3.65805,1.77677 2.19483,1.67225 2.19483,3.23999 l 0,94.58668 z"
         style="font-style:normal;font-variant:normal;font-weight:normal;font-stretch:normal;font-size:104.51567078px;font-family:Digitek;-inkscape-font-specification:Digitek;fill:#ff0000;fill-opacity:1"
         id="path4261" />
    </g>
    <rect
       style="color:#000000;fill:none;stroke:#000000;stroke-width:19.22881699;stroke-linecap:butt;stroke-linejoin:miter;stroke-miterlimit:4;stroke-opacity:1;stroke-dasharray:none;stroke-dashoffset:0;marker:none;visibility:visible;display:inline;overflow:visible;enable-background:accumulate"
       id="rect3765"
       width="561.55194"
       height="599.34778"
       x="88.503502"
       y="166.96739"
       inkscape:export-filename="/home/ricky/Desktop/wbxml-stream.png"
       inkscape:export-xdpi="12.733987"
       inkscape:export-ydpi="12.733987" />
    <path
       style="fill:none;stroke:#000000;stroke-width:9.61440849;stroke-linecap:butt;stroke-linejoin:miter;stroke-miterlimit:4;stroke-opacity:1;stroke-dasharray:none"
       d="m 370.24649,173.09788 0,600.68472 0,0 z"
       id="path3795"
       inkscape:connector-curvature="0"
       inkscape:export-filename="/home/ricky/Desktop/wbxml-stream.png"
       inkscape:export-xdpi="12.733987"
       inkscape:export-ydpi="12.733987" />
    <path
       style="fill:none;stroke:#000000;stroke-width:9.61440849;stroke-linecap:butt;stroke-linejoin:miter;stroke-miterlimit:4;stroke-opacity:1;stroke-dasharray:none"
       d="M 88.886703,468.24401 647.97583,466.16552 z"
       id="path3797"
       inkscape:connector-curvature="0"
       inkscape:export-filename="/home/ricky/Desktop/wbxml-stream.png"
       inkscape:export-xdpi="12.733987"
       inkscape:export-ydpi="12.733987" />
    <g
       transform="matrix(1.6427389e-5,-1.2167508,0.82186097,2.7676618e-6,0,0)"
       style="font-style:normal;font-weight:normal;font-size:311.65527344px;line-height:125%;font-family:Sans;letter-spacing:0px;word-spacing:0px;fill:#0000ff;fill-opacity:1;stroke:none"
       id="text3799">
      <path
         d="m -353.13672,173.28518 29.97856,0 21.76109,184.43662 25.86982,-122.04469 32.10901,0 26.17418,122.34904 21.76108,-184.74097 29.97856,0 -33.93512,227.19791 -29.0655,0 -30.89162,-134.9796 -30.73943,134.9796 -29.06551,0 -33.93512,-227.19791 z"
         style="font-style:normal;font-variant:normal;font-weight:normal;font-stretch:normal;font-size:311.65527344px;font-family:Monospace;-inkscape-font-specification:Monospace;fill:#0000ff;fill-opacity:1"
         id="path4277" />
    </g>
    <g
       transform="matrix(0,-0.81064881,1.2335798,0,0,0)"
       style="font-style:normal;font-weight:normal;font-size:162.55906677px;line-height:125%;font-family:Sans;letter-spacing:-8.53892899px;word-spacing:0px;fill:#0000ff;fill-opacity:1;stroke:none"
       id="text3807">
      <path
         d="m -910.67536,339.40984 20.66913,0 31.24181,53.62543 31.81331,-53.62543 20.66913,0 -42.5765,66.8651 45.62448,75.34231 -20.66912,0 -34.8613,-61.24539 -37.62353,61.24539 -20.76437,0 47.62472,-75.34231 -41.14776,-66.8651 z"
         style="font-style:normal;font-variant:normal;font-weight:normal;font-stretch:normal;font-size:195.07084656px;font-family:Monospace;-inkscape-font-specification:Monospace;letter-spacing:-8.53892899px;fill:#0000ff;fill-opacity:1"
         id="path4264" />
      <path
         d="m -801.86698,339.40984 25.71735,0 24.57435,72.38957 24.76485,-72.38957 25.8126,0 0,142.20741 -17.81164,0 0,-125.63401 -25.33635,74.96131 -14.57317,0 -25.4316,-74.96131 0,125.63401 -17.71639,0 0,-142.20741 z"
         style="font-style:normal;font-variant:normal;font-weight:normal;font-stretch:normal;font-size:195.07084656px;font-family:Monospace;-inkscape-font-specification:Monospace;letter-spacing:-8.53892899px;fill:#0000ff;fill-opacity:1"
         id="path4266" />
      <path
         d="m -680.77143,339.40984 19.33563,0 0,126.015 68.67485,0 0,16.19241 -88.01048,0 0,-142.20741 z"
         style="font-style:normal;font-variant:normal;font-weight:normal;font-stretch:normal;font-size:195.07084656px;font-family:Monospace;-inkscape-font-specification:Monospace;letter-spacing:-8.53892899px;fill:#0000ff;fill-opacity:1"
         id="path4268" />
    </g>
    <g
       transform="scale(1.0713118,0.93343505)"
       style="font-style:normal;font-weight:normal;font-size:289.57522583px;line-height:125%;font-family:Sans;letter-spacing:0px;word-spacing:0px;fill:#ff0000;fill-opacity:1;stroke:none"
       id="text3811">
      <path
         d="m 515.17249,378.8721 q 0,-36.31001 -11.53777,-54.80437 -11.53776,-18.49435 -34.10427,-18.49435 -22.73618,0 -34.44361,18.66402 -11.70744,18.49436 -11.70744,54.6347 0,35.97067 11.70744,54.6347 11.70743,18.66403 34.44361,18.66403 22.56651,0 34.10427,-18.49435 11.53777,-18.49436 11.53777,-54.80438 z M 423.3794,307.9488 q 7.46561,-13.91319 20.53043,-21.3788 13.2345,-7.46561 30.54114,-7.46561 34.27394,0 53.95601,26.46899 19.68206,26.29931 19.68206,72.62003 0,46.99942 -19.85173,73.80775 -19.68207,26.63866 -54.12569,26.63866 -16.96729,0 -30.03211,-7.29594 -12.89515,-7.46561 -20.70011,-21.54847 l 0,23.92389 -31.21983,0 0,-264.01116 31.21983,0 0,98.24066 z"
         style="font-style:normal;font-variant:normal;font-weight:normal;font-stretch:normal;font-size:347.49026489px;font-family:Monospace;-inkscape-font-specification:Monospace;fill:#ff0000;fill-opacity:1"
         id="path4274" />
    </g>
    <g
       transform="scale(0.93452468,1.0700627)"
       style="font-style:normal;font-weight:normal;font-size:295.03237915px;line-height:81.99999928%;font-family:Sans;letter-spacing:66.12717438px;word-spacing:0px;fill:#000000;fill-opacity:1;stroke:none"
       id="text3817">
      <path
         d="m 234.66959,571.64689 q 0,-7.92323 5.47424,-13.68558 5.61829,-5.76235 13.39746,-5.76235 8.06729,0 13.82965,5.76235 5.76235,5.76235 5.76235,13.68558 0,8.0673 -5.76235,13.68559 -5.6183,5.61829 -13.82965,5.61829 -8.06729,0 -13.54152,-5.47423 -5.33018,-5.47424 -5.33018,-13.82965 z m 19.15982,-87.87585 q -20.31229,0 -30.3964,21.89693 -9.94006,21.89694 -9.94006,66.69922 0,44.65822 9.94006,66.55515 10.08411,21.89694 30.3964,21.89694 20.45635,0 30.3964,-21.89694 10.08412,-21.89693 10.08412,-66.55515 0,-44.80228 -10.08412,-66.69922 -9.94005,-21.89693 -30.3964,-21.89693 z m 0,-23.0494 q 34.43005,0 52.00522,28.23552 17.71923,28.23552 17.71923,83.41003 0,55.03045 -17.71923,83.26597 -17.57517,28.23552 -52.00522,28.23552 -34.43005,0 -52.00522,-28.23552 -17.57517,-28.23552 -17.57517,-83.26597 0,-55.17451 17.57517,-83.41003 17.57517,-28.23552 52.00522,-28.23552 z"
         style="font-style:normal;font-variant:normal;font-weight:normal;font-stretch:normal;line-height:81.99999928%;font-family:Monospace;-inkscape-font-specification:Monospace;letter-spacing:66.12717438px"
         id="path4271" />
    </g>
  </g>
</svg>
